<?xml version="1.0" encoding="UTF-8"?><svg id="Layer_1" xmlns="http://www.w3.org/2000/svg" viewBox="0 0 566.92913 224.60081"><defs><style>.cls-1{fill:#c8102e;}</style></defs><g id="Skretting-logo"><g id="Endorsement"><path id="y" d="M264.61769,191.92632h3.97849l4.83066,9.94733,4.13351-9.94733h3.64304l-9.71371,22.60568h-3.90071l4.15907-8.73152-7.13035-13.87416Z"/><path id="n" d="M252.0433,207.78945h-3.51358v-15.86313h3.41024v2.22246s1.08498-2.53112,4.88303-2.53112c3.35788,0,5.45074,2.11774,5.45074,5.58034v10.59145h-3.51344v-9.01586c0-2.92031-.98177-3.9014-3.04853-3.9014-2.94518,0-3.66846,2.73918-3.66846,4.28784v8.62942Z"/><path id="a" d="M228.43853,199.93581c0-4.44354,2.66126-8.31814,7.54375-8.31814,2.22177,0,4.26228.92873,5.11515,2.37542v-2.06676h3.30689v15.86313h-3.30689v-2.14454s-1.4728,2.53236-5.16682,2.53236c-4.57314,0-7.49207-3.539-7.49207-8.24146ZM236.6022,194.66551c-2.94505,0-4.39187,2.55792-4.39187,5.21932,0,3.07327,1.52392,5.21781,4.23686,5.21781,3.15187,0,4.49522-2.68682,4.49522-5.42449,0-2.84253-1.75672-5.01263-4.3402-5.01263Z"/><path id="p" d="M210.33564,191.92632h3.4362v2.37816c1.05956-1.70574,2.79017-2.68682,4.9086-2.68682,4.80525,0,7.56918,4.05573,7.56918,8.49927,0,4.1845-2.73782,8.06033-7.44026,8.06033-3.64236,0-4.8825-2.40359-4.8825-2.40359v8.86153h-3.59121v-22.70889ZM222.63281,200.37461c0-2.68682-1.21389-5.39907-4.28784-5.39907-2.63584,0-4.46979,2.1701-4.46979,5.08904,0,2.76461,1.55017,4.70259,4.49522,4.70259,2.45471,0,4.26242-1.75672,4.26242-4.39256Z"/><path id="m" d="M188.51645,207.78945h-3.51346v-15.86313h3.25509v1.7581s1.24012-2.3258,4.28852-2.3258c2.71238,0,3.92683,1.80784,4.13351,2.37679,0,0,1.05887-2.42901,4.52147-2.42901,2.91894,0,5.11446,1.70574,5.11446,4.59911v11.88395h-3.51344v-10.51504c0-2.34985-1.0072-2.96992-2.32443-2.96992-2.06676,0-3.1002,1.75535-3.1002,3.20217v10.28279h-3.51344v-10.90286c0-2.0144-.8012-2.5821-2.27344-2.5821-1.67963,0-3.07463,1.62658-3.07463,3.17661v10.30835Z"/><path id="o" d="M173.46192,191.51308c4.9086,0,8.39661,3.72013,8.39661,8.34481,0,4.59925-3.12631,8.31938-8.34493,8.31938-4.75358,0-8.5254-3.33232-8.5254-8.31938,0-4.65023,3.79737-8.34481,8.47371-8.34481ZM168.65667,199.88482c0,2.68669,1.83464,5.01112,4.75358,5.01112,3.1002,0,4.80525-2.27344,4.80525-4.96013,0-2.68682-1.55003-5.06361-4.80525-5.06361-2.89351,0-4.75358,2.3258-4.75358,5.01263Z"/><path id="c" d="M149.7009,200.29806c0-4.59911,3.15174-8.6804,8.52539-8.6804,1.65337,0,3.07463.38658,4.41797,1.2132v3.48802s-1.91243-1.39433-4.28922-1.39433c-3.20341,0-5.03736,2.11774-5.03736,5.32115,0,2.63446,1.80839,4.65023,5.03736,4.65023,1.80908,0,3.33301-.85218,4.36646-1.55003v3.539s-1.83397,1.29236-4.5469,1.29236c-4.52078,0-8.47371-3.04908-8.47371-7.8792Z"/><path id="o-2" d="M130.36185,191.51308c4.9086,0,8.39663,3.72013,8.39663,8.34481,0,4.59925-3.12632,8.31938-8.34495,8.31938-4.75358,0-8.52538-3.33232-8.52538-8.31938,0-4.65023,3.79737-8.34481,8.47371-8.34481ZM125.5566,199.88482c0,2.68669,1.83464,5.01112,4.75358,5.01112,3.1002,0,4.80525-2.27344,4.80525-4.96013,0-2.68682-1.55003-5.06361-4.80525-5.06361-2.8935,0-4.75358,2.3258-4.75358,5.01263Z"/><path id="c-2" d="M106.60014,200.29806c0-4.59911,3.15175-8.6804,8.52538-8.6804,1.65338,0,3.07396.38658,4.4173,1.2132v3.48802s-1.91105-1.39433-4.28784-1.39433c-3.20341,0-5.03805,2.11774-5.03805,5.32115,0,2.63446,1.80839,4.65023,5.03805,4.65023,1.80784,0,3.33232-.85218,4.36576-1.55003v3.539s-1.83464,1.29236-4.54689,1.29236c-4.52133,0-8.47371-3.04908-8.47371-7.8792Z"/><path id="e" d="M88.36834,200.06458c0-4.62467,3.53899-8.44691,8.29257-8.44691,5.29641,0,7.85365,3.77126,7.77641,9.19575h-12.3233c0,2.40373,1.8345,4.31478,4.36631,4.31478,2.04064,0,3.74638-1.16222,4.52078-2.79017l3.10006,1.44669c-.90385,2.14468-3.61679,4.39256-7.49138,4.39256-4.70247,0-8.24146-3.20341-8.24146-8.11269ZM92.26959,198.05018h8.55095c0-.77577-.74953-3.48802-4.26297-3.48802-2.89352,0-4.28799,2.42915-4.28799,3.48802Z"/><path id="r" d="M84.93665,195.05332c-2.37679,0-3.22897,2.32443-3.22897,4.10671v8.62942h-3.51344v-15.86313h3.35843v2.30038s.95621-2.68682,4.18518-2.68682c.5684,0,1.24014.07778,1.93799.36102l-1.13679,3.48802s-.87898-.3356-1.60239-.3356Z"/><path id="t" d="M69.93121,207.78945v-12.52944h-1.78229v-3.33369h1.78229v-4.3402h3.61678v4.3402h2.63515v3.33369h-2.60959v12.52944h-3.64234Z"/><path id="u" d="M62.29085,191.92632h3.51345v10.33392c0,3.48802-2.71226,5.91703-6.51031,5.91703-4.10795,0-6.87201-2.1701-6.87201-5.91703v-10.33392h3.51358v9.12071c0,3.15105,1.24,3.74556,3.28064,3.74556,1.96341,0,3.07464-.59451,3.07464-3.66777v-9.1985Z"/><path id="N" d="M34.34725,193.60664v14.18282h-3.7718v-19.78995h3.82348l10.04931,14.33852v-14.33852h3.66914v19.78995h-3.77249l-9.99763-14.18282Z"/><path id="a-2" d="M1.5488,199.93581c0-4.44354,2.66057-8.31814,7.54361-8.31814,2.22177,0,4.26311.92873,5.11529,2.37542v-2.06676h3.30689v15.86313h-3.30689v-2.14454s-1.47225,2.53236-5.16696,2.53236c-4.57231,0-7.49194-3.539-7.49194-8.24146ZM9.71247,194.66551c-2.94518,0-4.39187,2.55792-4.39187,5.21932,0,3.07327,1.52461,5.21781,4.23686,5.21781,3.15187,0,4.49522-2.68682,4.49522-5.42449,0-2.84253-1.75671-5.01263-4.3402-5.01263Z"/></g><path id="Globe_Mark" class="cls-1" d="M454.45656,5.87869c40.35966,6.01983,81.47626,46.17005,81.47626,102.05188,0,58.16325-40.8133,108.86204-97.23865,115.30789,28.81666,6.44186,105.35673-7.20004,112.91655-101.36529,5.43796-67.74626-47.38395-115.36176-101.23393-118.53562-.81727-.04975-.91127-.4678.02281-.48457,57.30708-.86153,108.79236,51.63563,108.40042,116.71184-.13825,22.66189-6.65927,46.19891-21.01387,68.15896,20.1845-21.03009,29.09042-51.94566,29.14264-73.46815C567.08587,46.14971,512.8052-.90481,453.53471.0132c-68.37513,1.06093-107.97509,57.03195-110.82559,103.06443,7.51819-16.16107,21.31717-28.33073,29.58694-34.02444.55026-31.23771,22.61626-53.36349,46.62974-59.7174,47.1624-12.52477,86.42017,28.55157,84.88361,77.36941,0,60.68172-62.67674,121.54389-138.89067,93.09497.70994.99717,36.00874,57.8708,107.82873,21.01662,49.50167-25.40643,68.17902-91.04636,42.12174-142.8469-22.71287-45.14278-61.14664-51.94759-69.09304-52.36427-.82401-.04439-.8012-.56771.02694-.506,4.61533.07778,8.65346.77907,8.65346.77907h0Z"/><g id="Logotype"><path id="G" d="M427.76987,123.497h-.87238c-4.43406-5.07021-11.10405-7.68859-17.8385-7.68859-13.48632,0-22.83642,8.87101-22.83642,24.89644,0,15.69794,8.08715,25.44807,23.70468,25.44807,4.28111,0,8.7274-.78787,12.37112-2.69356v-20.37236h6.98002v22.43774c-6.90087,2.37555-14.19766,3.64372-21.57223,3.64372-20.05834,0-29.25682-11.97644-29.25682-28.07044,0-18.55655,13.32265-28.30461,30.91419-28.30461,11.82623,0,18.48289,3.49269,20.22889,4.6053l-1.82255,6.0983Z"/><path id="N-2" d="M363.92432,168.21293h-2.38077c-.86963-1.10724-2.45595-3.01019-4.12142-4.83136l-34.24927-37.90096h-.79323v42.73232c-.79309-.08053-3.72824-.08053-4.43819,0v-54.22639h3.08811l38.45658,41.68349-.00261-41.68349c-.00673,0,4.43544,0,4.4408,0v54.22639Z"/><path id="I" d="M291.53785,113.98654c0,.01072,6.9693,0,6.98002,0v54.22639c-.01072,0-6.99335.01347-6.98002,0v-54.22639Z"/><path id="T" d="M277.90598,118.74479c-3.9631-.47646-9.51252-.95415-16.57101-.95415v50.58734c-.00261,0-6.96999-.01608-6.97535,0v-50.58734c-8.00865,0-12.84277.47769-17.36946.95415v-4.75825h40.91582v4.75825Z"/><path id="T-2" d="M229.82159,118.74479c-3.96791-.47646-9.51458-.95415-16.56839-.95415v50.58734c-.01279,0-6.97193-.01608-6.98279,0v-50.58734c-8.01127,0-12.84071.47769-17.3641.95415v-4.75825h40.91527v4.75825Z"/><path id="E" d="M178.9161,118.74479c-2.37816-.47646-4.75633-.71269-7.1371-.87362l-7.92813-.16244h-6.10036v19.90539h12.28716c2.37542,0,4.68308-.31402,7.05121-.3973v4.28111c-2.36813-.08053-4.6758-.39991-7.05121-.39991h-12.28716v23.15456c4.82945.15694,9.58563-.1557,14.34718-.31539,2.46144-.07792,4.84222-.32075,7.2961-.72066-.00536.02144-.00536,4.76155,0,4.76155h-28.61795v-53.99153h28.14025v4.75825Z"/><path id="R" d="M137.3526,167.79818l-.00743.41475h-8.78965c-1.74614-2.44921-3.33039-4.67305-4.9938-6.89152l-9.35558-12.13351-6.33783-7.43889v-2.90286c2.08022.02817,4.81872-.04975,7.21227-.51672,5.78223-1.19039,10.14454-5.15349,10.14454-11.34043,0-5.47685-2.77807-9.04541-8.72204-9.99021-2.93103-.47783-8.32941-.24489-11.65774-.08589v21.80709h.01004v3.00483h-.01004v26.48811h-6.98071v-54.22639h16.81399c12.20661,0,17.60239,4.04556,17.60239,12.04694,0,9.19438-8.24421,13.64204-16.25026,15.06454l16.3334,20.69587,3.8008,4.44217,1.18765,1.56213Z"/><path id="K" d="M86.18339,113.98654l-17.99886,17.28371-6.7405,6.81621c6.33852,7.29817,12.92729,14.42977,19.26787,21.80174l6.42441,7.9328v.39194c-.00811,0-8.80793,0-8.80518,0-1.74875-2.53249-3.48472-4.91602-5.46627-7.21227l-17.28632-20.21803c-.39922-.31539-1.34678-.55026-1.34678-.23486v27.66517h-6.9726v-54.22639h6.9726v24.49859c.07861.47769,1.18778.15433,1.98086-.47783,1.428-1.10587,3.09622-2.77945,4.20332-3.88394l19.5048-20.13681h6.26265Z"/><path id="S" d="M28.14286,123.09709h-.78842c-1.66478-4.27575-5.15541-6.89413-9.83327-6.89413-5.47424,0-9.99021,3.65169-9.99021,9.27766,0,14.59482,24.97436,8.72328,24.97436,25.60776,0,11.34304-8.79721,18.08009-19.58326,18.08009-3.88188,0-10.22521-1.66286-12.92207-4.5965l1.50647-7.06193h.79116c3.0954,5.07433,6.65858,8.25369,12.84552,8.25369,6.42166,0,11.02627-5.3173,11.02627-11.58463,0-14.74379-24.82195-8.23885-24.82195-26.15664,0-10.23181,8.08658-15.22904,17.60446-15.22904,3.80328,0,8.40252,1.19314,11.32888,3.81152l-2.13794,6.49216Z"/></g></g></svg>